<svg xmlns="http://www.w3.org/2000/svg" width="331.777" height="92.922"><path style="marker:none" color="#000" fill="#fff" overflow="visible" d="M-29.377-26.029h390.531v144.98h-390.53z"/><text y="510.27" x="430.535" style="line-height:125%;-inkscape-font-specification:Gotham Bold" font-size="34.402" font-weight="700" letter-spacing="2.286" word-spacing="0" fill="#0079d9" font-family="Gotham" transform="translate(-348.519 -450.767)"><tspan dx="0 -2.261941 -2.4081495 -2.2447395 -1.2986809 -2.5027549 -1.6513029 -2.8123746 -2.8123746" y="510.27" x="430.535">KNOWLEDGE</tspan></text><path style="marker:none" d="M73.152 64.773L41.53 82.923 10 64.61l.094-36.461L41.718 10l31.529 18.312z" color="#000" fill="#2f3657" overflow="visible"/><path d="M43.083 46.431l-16.35-16.556-.076 32.877h32.835z" fill="#46e8ff"/><path d="M26.656 29.929v32.83l32.835-32.83z" fill="#46e8ff"/><path d="M26.727 29.93l-.07 32.822 16.382-16.368L26.783 29.93h-.056z" fill="#00aeff"/><path d="M26.722 29.882l-.071 32.866h16.466L26.864 30.023z" fill="#00aeff"/><path d="M26.722 29.929l-.071 32.819L37.66 51.76 26.864 30.023l-.095-.094h-.047z" fill="#0079d9"/></svg>