<svg version="1" xmlns="http://www.w3.org/2000/svg" xmlns:xlink="http://www.w3.org/1999/xlink" width="694" height="246"><switch><g><defs><path id="a" d="M-612-364h1920V716H-612z"/></defs><clipPath id="b"><use xlink:href="#a" overflow="visible"/></clipPath><path clip-path="url(#b)" fill="#FF8B00" d="M142.187 8.886c-11.454 0-17.81 3.966-22.451 6.862-3.666 2.287-5.879 3.668-11.301 3.668-5.421 0-7.634-1.381-11.3-3.668-4.641-2.896-10.996-6.862-22.449-6.862-11.453 0-17.808 3.966-22.448 6.862-3.666 2.287-5.878 3.668-11.299 3.668-5.419 0-7.631-1.381-11.296-3.668-4.641-2.896-10.996-6.862-22.448-6.862v21.06c5.42 0 7.632 1.381 11.297 3.668 4.641 2.895 10.995 6.862 22.447 6.862 11.453 0 17.808-3.967 22.448-6.862 3.666-2.287 5.878-3.668 11.299-3.668 5.421 0 7.634 1.381 11.3 3.668 4.641 2.895 10.996 6.862 22.449 6.862 11.453 0 17.809-3.966 22.45-6.861 3.666-2.288 5.879-3.669 11.302-3.669 5.419 0 7.631 1.381 11.296 3.668 2.578 1.609 5.728 3.528 9.945 4.934V15.004c-4.538-2.787-10.734-6.118-21.241-6.118"/><path clip-path="url(#b)" fill="#3C4650" d="M119.104 82.628c-13.53 0-25.656 6.1-33.792 15.687-8.137-9.587-20.263-15.687-33.792-15.687-24.441 0-44.325 19.883-44.325 44.324v70.002h21.06v-70.002c0-12.828 10.436-23.264 23.265-23.264 12.8 0 23.217 10.392 23.262 23.183l-.002.081v70.002h21.064v-70.002l-.003-.081c.045-12.791 10.462-23.183 23.263-23.183 12.828 0 23.264 10.436 23.264 23.264v70.002h21.06v-70.002c0-24.441-19.884-44.324-44.324-44.324m109.656 0c-24.441 0-44.324 19.883-44.324 44.324v70.002h21.06v-70.002c0-12.828 10.436-23.264 23.264-23.264s23.265 10.436 23.265 23.264v70.002h21.059v-70.002c0-24.441-19.883-44.324-44.324-44.324m65.509 69.994c0 24.44 19.883 44.324 44.324 44.324h23.256v-21.06h-23.256c-12.828 0-23.264-10.436-23.264-23.265v-2.305h46.52v-21.06h-46.52v-25.739h46.52v-21.06h-67.58v70.165zM190.064 66.833c0-8.723-7.071-15.795-15.795-15.795-8.723 0-15.794 7.072-15.794 15.795 0 8.723 7.071 15.794 15.794 15.794 8.724.001 15.795-7.07 15.795-15.794m275.211 49.566c0-18.707-15.221-33.927-33.922-33.927l-48.402-.029v114.503h21.059v-93.431l27.338.016c7.096 0 12.867 5.772 12.867 12.868 0 7.095-5.771 12.867-12.867 12.867h-16.791v21.06l31.778 46.364h25.539l-32.42-47.352c14.805-3.643 25.821-17.026 25.821-32.939m93.272-33.526l-32.085 85.693-32.085-85.693H471.89l42.71 114.072h23.723l42.711-114.072zm71.77 0h-22.766L564.84 196.945h22.488l31.607-84.412 31.605 84.412h22.488z"/><path clip-path="url(#b)" fill="#009FC7" d="M680.92 218.022H522.491l7.885 21.061h158.429z"/><text transform="translate(124.063 466.389)"><tspan x="0" y="0" font-family="'Colaborate-Thin'" font-size="40" letter-spacing="4">IDENTIDAD </tspan><tspan x="237.876" y="0" font-family="'Colaborate-Thin'" font-size="40" letter-spacing="3">D</tspan><tspan x="268.476" y="0" font-family="'Colaborate-Thin'" font-size="40" letter-spacing="4">E MARC</tspan><tspan x="421.994" y="0" font-family="'Colaborate-Thin'" font-size="40">A</tspan></text></g></switch></svg>